<svg width="262" height="194" viewBox="0 0 262 194" fill="none" xmlns="http://www.w3.org/2000/svg">
<path d="M137.508 192.357C127.359 184.829 106.289 167.855 103.204 160.181C100.497 150.921 100.606 134.24 122.69 141.594L134.057 149.389C138.523 144.259 148.915 134 154.761 134C162.069 134 170.594 139.196 171 147.39V149.788C171 150.388 169.444 152.919 168.564 154.185L164.911 159.781L160.445 166.376L156.588 172.172L152.732 177.368L148.672 182.564L144.612 187.361C142.853 189.16 139.253 192.797 138.929 192.957C138.689 193.152 137.881 192.638 137.508 192.357Z" fill="#FFBAD3" fill-opacity="0.76"/>
<path d="M138.523 192.357C138.43 192.244 138.257 192.111 138.117 191.958L127.968 183.963L118.63 176.169C116.262 174.037 111.526 169.734 111.526 169.574C111.526 169.374 106.654 164.777 105.639 162.779C104.625 160.78 103.331 160.381 102.798 154.585C102.371 149.948 103.432 146.657 104.016 145.592C104.692 143.839 107.466 140.387 113.15 140.595C118.833 140.803 121.743 141.881 122.487 142.394L129.997 147.39L134.057 150.188C139.267 144.792 150.702 134.16 154.761 134.799C158.821 135.439 160.919 135.999 161.46 136.198C162.745 136.931 165.641 138.717 166.94 139.996C168.564 141.594 171 147.79 169.985 150.188C168.97 152.586 149.02 183.764 138.523 192.357ZM138.523 192.357C138.32 192.557 138.604 193.117 138.929 192.957M138.929 192.957C139.253 192.797 142.853 189.16 144.612 187.361L148.672 182.564L152.732 177.368L156.588 172.172L160.445 166.376L164.911 159.781L168.564 154.185C169.444 152.919 171 150.388 171 149.788V147.39C170.594 139.196 162.069 134 154.761 134C148.915 134 138.523 144.259 134.057 149.389L122.69 141.594C100.606 134.24 100.497 150.921 103.204 160.181C106.289 167.855 127.359 184.829 137.508 192.357C137.881 192.638 138.689 193.152 138.929 192.957Z" stroke="black"/>
<path d="M87.0702 62.9602C87.2156 60.9952 87.7092 60.3381 88.6734 59.148C90.1403 57.3374 93.6834 56.502 96.4077 57.3068C99.1319 58.1115 100.599 60.7268 100.828 62.1657C101.051 63.572 101.437 65.7464 99.1321 68.4673C97.6537 70.2122 92.6357 70.4791 90.1403 69.207C89.0703 68.544 87.2508 66.8314 87.0235 64.3679C86.9825 63.9226 86.9934 63.4528 87.0702 62.9602Z" fill="black"/>
<path d="M87.0235 64.4437C87.0235 61.2554 87.4999 60.5965 88.6734 59.148C90.1403 57.3374 93.6834 56.502 96.4077 57.3068C99.1319 58.1115 100.599 60.7268 100.828 62.1657C101.051 63.572 101.437 65.7464 99.1321 68.4673C97.6537 70.2122 92.6357 70.4791 90.1403 69.207C88.8766 68.424 86.5676 66.177 87.0705 62.9581" stroke="black"/>
<path d="M73.8133 144.281C-81.1208 77.6457 66.9898 171.979 63.578 178C63.7222 178.541 63.7294 179.543 62.6055 179.222C61.4816 178.901 56.6517 174.004 54.3771 171.595L43.1384 162.162L29.09 150.722L17.6505 141.288C14.8408 138.813 9.02077 133.621 8.218 132.658C7.41524 131.694 5.60901 129.982 4.80624 129.246L2.19724 125.633C1.79586 124.496 1.11351 122.06 1.59517 121.418C2.19724 120.615 3.00001 119.411 4.20416 119.21C5.40832 119.01 8.82008 118.809 9.82354 119.21C10.827 119.612 19.6574 121.418 24.2734 123.024C28.8893 124.629 37.1176 127.64 38.7232 128.242C40.0076 128.724 44.8777 130.718 47.1522 131.654L60.3979 137.073L70.2318 141.288L66.8201 135.869C65.3483 132.992 62.2844 126.958 61.8027 125.834C61.3211 124.71 58.2572 117.738 56.7855 114.393C55.3137 110.379 52.3702 102.15 52.3702 101.347C52.3702 100.344 50.564 94.7238 50.564 88.1005C50.564 82.8018 51.7682 75.322 52.3702 72.2445C53.1061 69.0331 54.618 62.5703 54.7785 62.4098C54.9792 62.209 57.7889 52.9764 59.1938 50.1665C60.5986 47.3566 62.0034 43.7438 64.2111 40.1311C66.4187 36.5183 71.436 30.2964 71.6367 30.0957C71.8373 29.895 78.2595 22.286 81.8719 19.6588C85.4844 17.0317 93.3114 12.2326 94.1142 11.8312C94.9169 11.4298 103.346 6.01063 111.374 4.40496C119.401 2.79929 126.225 1.79574 128.633 1.39433C131.041 0.99291 141.879 1.19362 144.689 1.79574C147.498 2.39787 154.522 3 170.779 8.82055C183.783 13.477 198.139 27.4865 203.692 33.9091C204.762 35.1803 207.786 39.1276 211.318 44.7474C215.733 51.7722 219.145 71.6423 219.948 80.4735C220.751 89.3047 219.284 107.368 218.312 110.58C217.339 113.791 214.128 127.439 208.107 135.468C205.398 139.08 204.001 140.83 203.345 141.575C207.89 138.435 217.209 132.28 221.554 130.432C227.173 128.041 235.602 123.024 243.429 119.812C249.691 117.243 255.671 116.869 257.879 117.002C259.083 117.337 261.331 118.528 260.688 120.615C260.488 122.02 259.926 125.071 259.284 126.034C258.481 127.239 250.453 138.278 247.643 141.489C245.396 144.058 235.201 153.799 230.384 158.348L219.747 168.785L207.505 179.222C206.702 179.06 205.338 178.589 206.301 178C211.787 175.123 226.701 159 240.017 146.723C252.861 134.881 260.019 123.775 258.882 119.427C255.47 118.557 254.347 117.018 241.823 122.638C229.516 128.161 204.862 141.019 194.746 149.08C194.557 149.241 194.384 149.381 194.229 149.499C194.397 149.361 194.569 149.222 194.746 149.08C197.338 146.885 203.044 140.756 208.879 130.432C216.706 116.583 218.312 97.4978 218.312 89.6882C218.312 76.0737 213.39 50.6174 206.301 40.9497C199.212 31.282 184.626 16.8646 170.779 11.6462C156.931 6.42778 144.889 0.607255 125.021 4.0193C105.152 7.43135 104.921 8.4012 89.4674 17.0317C77.1048 23.936 67.0568 38.3737 63.5781 44.7295C58.6277 54.8318 49.6097 79.3718 53.1419 96.713C56.6741 114.054 68.3947 135.65 73.8133 144.281Z" fill="black"/>
<path d="M63.578 178C66.9898 171.979 -81.1208 77.6457 73.8133 144.281C68.3946 135.65 56.6741 114.054 53.1419 96.713C49.6097 79.3718 58.6277 54.8318 63.5781 44.7295C67.0568 38.3737 77.1048 23.936 89.4674 17.0317C104.921 8.4012 105.152 7.43135 125.021 4.0193C144.889 0.607255 156.931 6.42778 170.779 11.6462C184.626 16.8646 199.212 31.282 206.301 40.9497C213.39 50.6174 218.312 76.0737 218.312 89.6882C218.312 97.4978 216.706 116.583 208.879 130.432C202.617 141.511 196.503 147.76 194.229 149.499C203.996 141.471 229.3 128.258 241.823 122.638C254.347 117.018 255.47 118.557 258.882 119.427C260.019 123.775 252.861 134.881 240.017 146.723C226.701 159 211.787 175.123 206.301 178C205.338 178.589 206.702 179.06 207.505 179.222L219.747 168.785L230.384 158.348C235.201 153.799 245.396 144.058 247.643 141.489C250.453 138.278 258.481 127.239 259.284 126.034C259.926 125.071 260.488 122.02 260.688 120.615C261.331 118.528 259.083 117.337 257.879 117.002C255.671 116.869 249.691 117.243 243.429 119.812C235.602 123.024 227.173 128.041 221.554 130.432C217.058 132.344 207.238 138.868 202.889 141.89C202.622 142.426 203.291 141.89 208.107 135.468C214.128 127.439 217.339 113.791 218.312 110.58C219.284 107.368 220.751 89.3047 219.948 80.4735C219.145 71.6423 215.733 51.7722 211.318 44.7474C207.786 39.1276 204.762 35.1803 203.692 33.9091C198.139 27.4865 183.783 13.477 170.779 8.82055C154.522 3 147.498 2.39787 144.689 1.79574C141.879 1.19362 131.041 0.99291 128.633 1.39433C126.225 1.79574 119.401 2.79929 111.374 4.40496C103.346 6.01063 94.9169 11.4298 94.1142 11.8312C93.3114 12.2326 85.4844 17.0317 81.8719 19.6588C78.2595 22.286 71.8373 29.895 71.6367 30.0957C71.436 30.2964 66.4187 36.5183 64.2111 40.1311C62.0034 43.7438 60.5986 47.3566 59.1938 50.1665C57.7889 52.9764 54.9792 62.209 54.7785 62.4098C54.618 62.5703 53.1061 69.0331 52.3702 72.2445C51.7682 75.322 50.564 82.8017 50.564 88.1005C50.564 94.7238 52.3702 100.344 52.3702 101.347C52.3702 102.15 55.3137 110.379 56.7855 114.393C58.2572 117.738 61.3211 124.71 61.8028 125.834C62.2844 126.958 65.3483 132.992 66.82 135.869L70.2318 141.288L60.3979 137.073L47.1522 131.654C44.8777 130.718 40.0076 128.724 38.7232 128.242C37.1176 127.64 28.8893 124.629 24.2734 123.024C19.6574 121.418 10.827 119.612 9.82354 119.21C8.82008 118.809 5.40832 119.01 4.20416 119.21C3.00001 119.411 2.19724 120.615 1.59517 121.418C1.11351 122.06 1.79586 124.496 2.19724 125.633L4.80624 129.246C5.60901 129.982 7.41524 131.694 8.218 132.658C9.02077 133.621 14.8408 138.813 17.6505 141.288L29.09 150.722L43.1384 162.162L54.3771 171.595C56.6517 174.004 61.4816 178.901 62.6055 179.222C63.7294 179.543 63.7222 178.541 63.578 178Z" stroke="black"/>
<path d="M117.538 90.4895C115.991 88.6201 114.585 89.7417 114.585 90.8634V94.4776L115.569 97.8426C115.991 98.0919 117.346 101.604 122.46 101.332C129.492 100.958 129.86 99.5248 131.32 97.8426C132.726 96.2224 133.476 92.899 133.851 90.8634C133.335 89.4094 132.473 87.7975 130.898 91.9851C128.929 97.2195 129.351 97.0949 126.538 98.0919C125.363 98.5085 121.616 99.4628 119.647 98.4658C118.072 97.6681 116.975 92.6082 117.538 90.4895Z" fill="black" stroke="#222222"/>
<path d="M133.744 149.398C133.942 149.193 134.107 148.956 134.318 148.762C134.399 148.686 134.479 148.609 134.557 148.53C134.605 148.483 134.622 148.42 134.654 148.36C134.721 148.232 134.807 148.128 134.899 148.017C135.009 147.883 135.1 147.723 135.228 147.607C135.245 147.591 135.357 147.477 135.354 147.546C135.348 147.693 135.269 147.854 135.159 147.95C135.061 148.036 134.976 148.155 134.902 148.262C134.89 148.279 134.806 148.379 134.856 148.318C135.217 147.874 135.541 147.413 135.96 147.02C136.069 146.918 136.187 146.831 136.304 146.738C136.406 146.657 136.453 146.574 136.524 146.464C136.604 146.339 136.688 146.218 136.793 146.113C136.829 146.077 136.863 146.038 136.902 146.005C136.982 145.938 136.92 146.159 136.918 146.169C136.899 146.261 136.884 146.378 136.846 146.465C136.832 146.494 136.792 146.509 136.785 146.537C136.752 146.669 136.862 146.274 136.924 146.153C137.118 145.775 137.397 145.54 137.699 145.261C137.797 145.171 137.832 145.187 137.755 145.31C137.682 145.427 137.596 145.539 137.508 145.645C137.407 145.766 137.363 145.921 137.266 146.04C137.109 146.231 137.475 145.589 137.611 145.382C137.79 145.109 138.058 144.876 138.283 144.642C138.364 144.558 138.451 144.484 138.537 144.406C138.6 144.348 138.821 144.176 138.682 144.374C138.49 144.647 138.213 144.857 138.037 145.141C137.994 145.21 137.833 145.438 137.971 145.207C138.097 144.993 138.22 144.75 138.389 144.565C138.528 144.413 138.697 144.282 138.858 144.153C139.107 143.953 139.362 143.754 139.588 143.526C139.685 143.427 139.768 143.321 139.857 143.216C139.861 143.211 139.959 143.109 139.917 143.107C139.727 143.102 139.533 143.273 139.411 143.395C139.226 143.578 139.063 143.779 138.902 143.982C138.866 144.027 138.864 144.058 138.856 144.115C138.842 144.209 138.807 144.293 138.776 144.382C138.76 144.427 138.727 144.495 138.741 144.545C138.756 144.597 138.883 144.48 138.9 144.467C139.039 144.354 139.154 144.213 139.289 144.096C139.336 144.055 139.375 144.002 139.406 143.948C139.566 143.661 139.731 143.38 139.911 143.105C139.992 142.983 140.074 142.883 140.177 142.784C140.221 142.741 140.262 142.693 140.309 142.655C140.377 142.601 140.286 142.726 140.277 142.741C140.211 142.86 140.135 142.981 140.042 143.081C140.002 143.125 139.939 143.208 139.919 143.266C139.907 143.301 139.852 143.352 139.864 143.393C139.88 143.45 139.95 143.31 139.996 143.272C140.06 143.219 140.103 143.153 140.159 143.092C140.25 142.994 140.351 142.909 140.449 142.818C140.509 142.762 140.592 142.682 140.519 142.602C140.464 142.542 140.334 142.506 140.425 142.437C140.498 142.381 140.584 142.346 140.656 142.291C140.74 142.227 140.82 142.147 140.9 142.077C141.004 141.984 141.138 141.889 141.225 141.781C141.304 141.684 141.11 142.002 141.049 142.111C140.958 142.271 140.749 142.327 140.661 142.502C140.635 142.555 140.606 142.608 140.575 142.661C140.554 142.697 140.576 142.702 140.605 142.677C140.685 142.609 140.756 142.53 140.83 142.456C141.098 142.188 141.429 142.001 141.697 141.734C141.917 141.513 142.184 141.35 142.413 141.136C142.528 141.029 142.658 140.937 142.779 140.837C142.799 140.82 143.076 140.659 143.061 140.642C143.035 140.613 142.872 140.643 142.845 140.646C142.709 140.66 142.557 140.673 142.431 140.732C142.278 140.805 142.154 140.913 142.019 141.014C141.886 141.112 141.787 141.256 141.663 141.366C141.501 141.509 141.347 141.663 141.2 141.822C141.052 141.984 141.583 141.603 141.761 141.474C141.8 141.447 141.852 141.469 141.852 141.416" stroke="black" stroke-linecap="round"/>
<path d="M142.793 140.638C143.099 140.343 143.503 140.16 143.868 139.952C143.948 139.906 144.023 139.883 144.096 139.827C144.145 139.79 143.975 139.842 143.915 139.855C143.624 139.922 143.329 140.002 143.075 140.162C142.837 140.311 142.628 140.503 142.403 140.67C142.38 140.687 142.355 140.712 142.327 140.72C142.183 140.762 142.546 140.517 142.665 140.427C143.063 140.128 143.51 139.896 143.949 139.664C144.284 139.488 144.61 139.295 144.937 139.104C145.021 139.055 145 139.142 145.065 139.107C145.101 139.088 145.326 138.847 145.341 138.861C145.352 138.87 145.337 138.905 145.359 138.904C145.414 138.9 145.451 138.837 145.454 138.789C145.465 138.6 145.471 138.44 145.562 138.267C145.583 138.228 145.605 138.191 145.625 138.151C145.63 138.14 145.64 138.13 145.639 138.118C145.638 138.116 145.634 138.115 145.633 138.116C145.567 138.149 145.508 138.195 145.448 138.236C145.043 138.512 144.644 138.797 144.23 139.058C144.154 139.105 144.072 139.143 144 139.196C143.706 139.411 143.502 139.727 143.227 139.964C143.208 139.981 143.143 140.025 143.167 140.014C143.495 139.867 143.804 139.661 144.123 139.495C144.436 139.333 144.754 139.198 145.075 139.054C145.136 139.026 145.18 138.991 145.236 138.958C145.243 138.954 145.086 138.98 145.048 138.988C145.017 138.996 144.922 139.002 144.901 138.972C144.866 138.924 145.033 138.727 145.074 138.696C145.267 138.545 145.485 138.428 145.693 138.299C145.942 138.144 146.167 137.927 146.376 137.723C146.536 137.567 146.693 137.375 146.875 137.243C146.925 137.206 147.055 137.105 146.902 137.168C146.677 137.262 146.452 137.401 146.243 137.524C146.035 137.647 145.851 137.788 145.657 137.929C145.59 137.976 145.523 138.018 145.465 138.076C145.45 138.092 145.507 138.093 145.528 138.087C145.717 138.04 145.903 137.98 146.083 137.904C146.382 137.78 146.686 137.631 146.963 137.462C147.114 137.37 147.239 137.244 147.386 137.148C147.432 137.119 147.478 137.092 147.517 137.054" stroke="black" stroke-linecap="round"/>
<path d="M146.29 137.338C147.391 136.764 148.422 136.106 149.568 135.612C149.748 135.535 149.935 135.467 150.116 135.394C150.234 135.346 150.66 135.209 150.286 135.338C149.613 135.571 149.055 136.068 148.391 136.29C148.267 136.331 148.096 136.513 148.005 136.609C147.892 136.73 147.756 136.813 147.635 136.927C147.403 137.145 147.99 136.368 148.264 136.206C148.586 136.016 148.919 135.833 149.236 135.627C149.399 135.522 149.557 135.458 149.716 135.338C149.918 135.185 150.19 135.043 150.423 134.945C150.767 134.801 151.096 134.647 151.441 134.506C151.486 134.488 151.697 134.368 151.679 134.369C151.588 134.375 151.337 134.509 151.251 134.554C150.985 134.693 150.718 134.828 150.502 135.044C150.438 135.108 150.215 135.245 150.304 135.229C150.531 135.188 150.723 135.014 150.949 134.953C151.18 134.89 151.508 134.709 151.702 134.574C151.915 134.427 152.107 134.317 152.276 134.12C152.32 134.068 152.448 134.092 152.339 134.161C152.243 134.222 152.032 134.273 151.918 134.278C151.615 134.289 151.752 134.272 151.989 134.278C152.27 134.284 152.721 134.551 152.877 134.176C152.934 134.039 153.113 133.9 153.255 133.869C153.335 133.851 153.72 133.866 153.618 133.866C153.31 133.866 153.002 133.866 152.694 133.866C152.444 133.866 152.495 133.927 152.684 134.024C153.041 134.208 153.493 134.141 153.894 134.141C154.17 134.141 154.486 134.185 154.755 134.13C154.842 134.113 154.996 134.015 154.871 133.935C154.736 133.848 154.549 133.855 154.394 133.831C154.172 133.797 153.934 133.821 153.709 133.821C153.445 133.821 153.457 133.675 153.735 133.752C153.988 133.823 154.199 133.912 154.465 133.912C154.736 133.912 155.007 133.912 155.277 133.912C155.829 133.912 154.744 133.712 154.744 133.869C154.744 133.974 155.005 134.227 155.105 134.232C155.233 134.239 155.364 134.232 155.493 134.232C155.664 134.232 155.806 134.36 155.972 134.369C156.233 134.383 155.974 134.21 155.917 134.095C155.829 133.919 156.088 133.958 155.858 133.958C155.686 133.958 155.59 133.866 155.813 133.866C156.241 133.866 156.742 133.827 157.15 133.968C157.411 134.058 157.654 134.132 157.911 134.252C158.276 134.423 157.486 134.372 157.353 134.323C157.248 134.285 157.152 134.294 157.048 134.267C156.913 134.233 156.791 134.116 156.657 134.097C156.58 134.086 156.089 134.095 156.246 134.095C156.317 134.095 156.651 134.15 156.429 134.267C156.386 134.29 156.255 134.263 156.366 134.28C156.519 134.304 156.681 134.36 156.83 134.404C157.005 134.456 157.147 134.416 157.325 134.508C157.596 134.65 157.951 134.689 158.256 134.689C158.321 134.689 158.735 134.853 158.657 134.689C158.604 134.577 158.408 134.323 158.279 134.323C158.15 134.323 158.405 134.323 158.434 134.326C158.556 134.339 158.717 134.453 158.829 134.506C159.019 134.596 159.253 134.575 159.453 134.633C159.647 134.688 159.795 134.761 159.989 134.846C160.116 134.901 160.508 135.021 160.446 135.011C160.193 134.969 159.928 134.997 159.677 134.953C159.433 134.909 159.29 134.734 159.032 134.734C158.991 134.734 158.814 134.731 158.951 134.734C159.105 134.738 159.271 134.776 159.395 134.869C159.524 134.966 159.749 135.004 159.854 135.123C159.888 135.16 160.03 135.206 159.918 135.189C159.745 135.162 159.6 135.056 159.433 135.018C159.374 135.005 158.633 134.857 158.642 134.881C158.67 134.966 159 134.983 159.078 135.008C159.236 135.06 159.378 135.146 159.537 135.194C159.843 135.285 160.126 135.336 160.443 135.371C160.666 135.396 160.818 135.475 161.032 135.546C161.127 135.578 161.407 135.772 161.407 135.556" stroke="black" stroke-linecap="round"/>
<path d="M155.46 134.014C155.531 134.014 155.601 134.014 155.671 134.014C155.8 134.014 155.414 133.988 155.288 133.962C155.225 133.95 154.991 133.951 154.972 133.849C154.961 133.784 155.582 133.787 155.669 133.787C155.918 133.787 156.173 133.839 156.421 133.857C156.818 133.885 157.178 134.017 157.542 134.174C157.758 134.267 157.975 134.289 158.206 134.328C158.273 134.34 158.332 134.363 158.401 134.363C158.465 134.363 158.458 134.346 158.544 134.361C159.227 134.48 159.99 134.609 160.592 134.982C160.661 135.025 160.719 135.086 160.788 135.128C160.835 135.157 160.903 135.169 160.955 135.182C161.126 135.228 161.297 135.271 161.467 135.322C161.623 135.369 161.845 135.437 161.971 135.555C162.061 135.638 162.164 135.707 162.261 135.782C162.475 135.949 162.693 136.111 162.914 136.27C162.97 136.311 163.027 136.351 163.083 136.391C163.176 136.457 163.101 136.404 163.047 136.362C162.655 136.062 162.288 135.728 161.894 135.433C161.819 135.376 161.733 135.321 161.643 135.289C161.612 135.278 161.408 135.184 161.399 135.272C161.39 135.359 161.419 135.454 161.473 135.524C161.523 135.588 161.61 135.633 161.676 135.677C162.029 135.913 162.394 136.133 162.754 136.357C162.947 136.477 163.086 136.567 163.308 136.637C163.397 136.665 163.466 136.664 163.415 136.548C163.343 136.382 163.206 136.279 163.076 136.163C163.041 136.133 162.894 136.018 163.024 136.111C163.312 136.317 163.574 136.568 163.893 136.727C164.062 136.812 164.239 136.901 164.376 137.034C164.49 137.145 164.62 137.234 164.739 137.339C164.775 137.371 164.824 137.41 164.847 137.455C164.885 137.533 164.794 137.508 164.751 137.491C164.604 137.433 164.473 137.339 164.33 137.271C164.1 137.159 163.877 137.059 163.636 136.976C163.501 136.929 163.359 136.9 163.248 136.808C163.224 136.787 163.063 136.677 163.195 136.725C163.523 136.847 163.836 137.026 164.152 137.177C164.362 137.278 164.543 137.384 164.716 137.541C164.741 137.564 164.813 137.63 164.782 137.618C164.72 137.595 164.655 137.585 164.594 137.559C164.381 137.469 164.129 137.477 163.939 137.332C163.913 137.312 163.87 137.288 163.852 137.259C163.822 137.211 164.26 137.423 164.261 137.424C164.662 137.644 165.031 137.902 165.414 138.144C165.54 138.223 165.662 138.309 165.765 138.416C165.796 138.447 165.898 138.616 165.8 138.521C165.498 138.226 165.215 137.893 165.026 137.515C165.012 137.487 164.993 137.449 164.983 137.42C164.976 137.398 165.026 137.442 165.045 137.457C165.208 137.594 165.364 137.741 165.517 137.89C165.706 138.074 165.855 138.249 165.993 138.468C166.037 138.54 166.073 138.616 166.117 138.688C166.176 138.786 166.262 138.89 166.287 139.004C166.297 139.053 166.068 138.905 166.039 138.889C165.888 138.808 165.769 138.709 165.636 138.602C165.459 138.459 165.268 138.333 165.093 138.188C164.931 138.053 164.758 137.932 164.562 137.849C164.433 137.794 164.59 137.836 164.646 137.856C165.129 138.031 165.592 138.292 166.026 138.566C166.33 138.759 166.582 139 166.819 139.27C166.846 139.3 167.068 139.578 166.984 139.557C166.828 139.518 166.697 139.373 166.585 139.269C166.457 139.149 166.316 139.031 166.198 138.9C165.937 138.608 166.8 139.41 167.044 139.716C167.136 139.83 167.189 139.937 167.25 140.065C167.274 140.116 167.286 140.19 167.324 140.232C167.462 140.387 167.655 140.489 167.793 140.65C167.904 140.778 168.009 140.96 168.054 141.123C168.082 141.227 168.124 141.332 168.168 141.43C168.177 141.45 168.183 141.478 168.151 141.469C168.068 141.445 168.017 141.349 167.966 141.288C167.815 141.108 167.678 140.926 167.557 140.723C167.341 140.363 167.267 139.962 167.093 139.586C167.05 139.494 167.206 139.524 167.258 139.549C167.488 139.661 167.513 140.017 167.586 140.227C167.664 140.45 167.795 140.696 167.939 140.886C168.04 141.019 168.178 141.101 168.294 141.214C168.378 141.297 168.465 141.377 168.543 141.465C168.716 141.662 168.13 141.119 168.009 140.886C167.957 140.787 167.894 140.682 167.865 140.572C167.853 140.526 167.874 140.49 167.914 140.529" stroke="black" stroke-linecap="round"/>
<path d="M168.141 141.35C168.241 141.534 168.414 141.705 168.469 141.909C168.51 142.06 168.623 142.189 168.709 142.317C168.791 142.437 168.871 142.528 168.917 142.666C168.97 142.822 169.08 143.011 169.067 143.181C169.063 143.231 168.803 143.019 168.774 142.971C168.704 142.859 168.587 142.586 168.793 142.86C168.983 143.113 169.155 143.373 169.171 143.691C169.174 143.737 169.258 143.83 169.29 143.858C169.394 143.95 169.43 144.15 169.468 144.281C169.498 144.383 169.468 144.488 169.494 144.59C169.563 144.865 169.696 145.125 169.765 145.403C169.795 145.521 169.853 145.628 169.853 145.751C169.853 145.819 169.863 145.898 169.88 145.964C169.899 146.04 169.922 146.117 169.922 146.196C169.922 146.287 169.994 146.401 170.018 146.492C170.06 146.657 170.036 146.822 170.071 146.984C170.11 147.163 170.09 147.339 170.116 147.516C170.141 147.697 170.184 147.862 170.184 148.046C170.184 148.114 170.184 148.183 170.184 148.251C170.184 148.378 170.182 148.5 170.158 148.626C170.141 148.72 170.145 148.825 170.114 148.915C170.09 148.983 170.08 149.081 170.044 149.142C170.002 149.212 170.009 149.3 169.991 149.379C169.975 149.45 169.957 149.505 169.957 149.578" stroke="black" stroke-width="2" stroke-linecap="round"/>
<path d="M169.863 149.559C169.759 149.694 169.703 149.909 169.646 150.07C169.615 150.161 169.639 150.24 169.595 150.327C169.553 150.412 169.527 150.541 169.504 150.633C169.487 150.701 169.464 150.828 169.415 150.878C169.317 150.975 169.273 151.109 169.197 151.221C169.128 151.321 169.042 151.423 168.967 151.516C168.817 151.704 168.826 151.948 168.608 152.094" stroke="black" stroke-width="2" stroke-linecap="round"/>
<path d="M168.608 152.094C168.54 152.333 168.272 152.516 168.162 152.747C168.078 152.921 168.015 153.111 167.906 153.27C167.767 153.472 167.628 153.676 167.52 153.898C167.444 154.057 167.376 154.217 167.292 154.371C167.204 154.53 167.079 154.667 166.989 154.829C166.833 155.107 166.621 155.351 166.435 155.609C166.329 155.758 166.185 155.875 166.088 156.033C165.897 156.346 165.744 156.687 165.54 156.993C165.295 157.36 165.101 157.757 164.837 158.112C164.718 158.272 164.616 158.42 164.533 158.602C164.488 158.7 164.402 158.754 164.339 158.838C164.231 158.982 164.105 159.108 163.981 159.241C163.616 159.634 163.389 160.146 163.094 160.593C162.962 160.793 162.887 161.072 162.732 161.244C162.682 161.3 162.659 161.404 162.593 161.437" stroke="black" stroke-width="2" stroke-linecap="round"/>
<path d="M162.619 161.335C162.504 161.369 162.397 161.668 162.313 161.757C162.206 161.871 162.168 162.052 162.061 162.173C161.68 162.605 161.335 163.018 161.029 163.502C160.974 163.59 160.947 163.676 160.904 163.767C160.84 163.902 160.732 164.01 160.639 164.125C160.441 164.373 160.297 164.654 160.116 164.913C160.002 165.077 159.919 165.267 159.817 165.439C159.706 165.627 159.588 165.816 159.496 166.014C159.421 166.175 159.25 166.3 159.143 166.44C159.039 166.578 158.934 166.717 158.836 166.859C158.636 167.147 158.538 167.515 158.284 167.769C157.918 168.135 157.612 168.552 157.344 168.993C157.19 169.248 157.035 169.509 156.894 169.771C156.815 169.916 156.718 170.008 156.609 170.137C156.279 170.524 156.04 170.956 155.735 171.357C155.566 171.578 155.436 171.826 155.267 172.047C155.026 172.36 154.799 172.665 154.593 172.997C154.396 173.313 154.18 173.613 153.981 173.932C153.887 174.084 153.81 174.25 153.711 174.399C153.69 174.431 153.665 174.477 153.634 174.493" stroke="black" stroke-width="2" stroke-linecap="round"/>
<path d="M153.813 174.339C153.649 174.365 153.498 174.624 153.39 174.739C153.238 174.899 153.105 175.078 152.98 175.259C152.798 175.525 152.519 175.722 152.342 175.992C152.157 176.272 151.92 176.536 151.766 176.834C151.632 177.092 151.486 177.345 151.356 177.604C151.229 177.859 150.979 178.083 150.804 178.307C150.666 178.486 150.537 178.683 150.409 178.87C150.316 179.006 150.199 179.134 150.118 179.278C150.07 179.362 149.997 179.413 149.927 179.483C149.77 179.64 149.614 179.807 149.478 179.984C149.176 180.374 148.867 180.762 148.568 181.158C148.207 181.636 147.749 182.063 147.44 182.576C147.283 182.837 147.094 183.1 146.928 183.35" stroke="black" stroke-width="2" stroke-linecap="round"/>
<path d="M110.652 168.763C110.451 168.406 110.025 168.098 109.754 167.792C109.582 167.598 109.415 167.403 109.232 167.22C108.677 166.665 108.203 166.017 107.69 165.424C107.413 165.104 107.135 164.724 106.792 164.467C106.647 164.358 106.543 164.132 106.438 163.986C106.331 163.836 106.212 163.701 106.112 163.546C106.022 163.407 105.886 163.343 105.774 163.231C105.547 163.004 105.474 162.663 105.273 162.408C105.026 162.095 104.681 161.863 104.468 161.519C104.373 161.365 104.161 161.198 104.161 161.006" stroke="black" stroke-width="2" stroke-linecap="round"/>
<path d="M105.1 162.312V162.395" stroke="black" stroke-width="2" stroke-linecap="round"/>
<path d="M104.733 161.496C104.629 161.458 104.567 161.326 104.488 161.251C104.423 161.19 104.356 161.235 104.284 161.201C104.159 161.142 104.067 160.874 104.019 160.757C103.96 160.613 103.906 160.462 103.855 160.314C103.834 160.254 103.804 160.205 103.776 160.149C103.741 160.08 104.094 160.436 104.13 160.475C104.291 160.649 104.633 161.269 104.465 161.101C104.185 160.821 104.026 160.342 103.874 159.985C103.754 159.707 103.578 159.458 103.468 159.178C103.333 158.839 103.268 158.471 103.143 158.128C103.059 157.895 103.019 157.698 103.019 157.454" stroke="black" stroke-width="2" stroke-linecap="round"/>
<path d="M103.019 157.495C103.019 157.221 102.996 156.934 102.905 156.679C102.816 156.428 102.83 156.129 102.794 155.867C102.758 155.605 102.702 155.338 102.633 155.084C102.501 154.597 102.529 154.103 102.529 153.601C102.529 153.146 102.447 152.696 102.447 152.238C102.447 151.933 102.447 151.627 102.447 151.322C102.447 150.949 102.531 150.621 102.565 150.249C102.616 149.688 102.666 149.146 102.792 148.589C102.848 148.339 102.896 148.124 102.896 147.861" stroke="black" stroke-width="2" stroke-linecap="round"/>
<path d="M102.896 148.106C102.896 147.437 102.926 146.829 103.223 146.214C103.43 145.784 103.551 145.298 103.753 144.858C103.845 144.659 103.893 144.443 104.03 144.268C104.223 144.021 104.396 143.719 104.529 143.436C104.605 143.275 104.83 143.003 105.019 143.003" stroke="black" stroke-width="2" stroke-linecap="round"/>
<path d="M105.141 142.823C105.666 142.263 106.255 141.712 106.931 141.334C107.206 141.18 107.447 140.976 107.737 140.842C107.921 140.757 108.151 140.715 108.321 140.604C108.528 140.467 108.786 140.339 109.02 140.256C109.297 140.157 109.564 140.209 109.841 140.161C109.879 140.155 109.917 140.13 109.949 140.114C110.139 140.018 110.33 139.935 110.532 139.867C110.674 139.82 110.835 139.761 110.987 139.761C111.147 139.761 111.302 139.714 111.464 139.714C112.41 139.714 113.357 139.714 114.303 139.714C114.929 139.714 115.56 139.689 116.181 139.762C116.355 139.783 116.516 139.862 116.694 139.879C116.833 139.892 116.97 139.916 117.11 139.927C117.289 139.942 117.452 140.012 117.634 140.021C117.71 140.025 117.777 140.054 117.852 140.062C117.96 140.074 118.07 140.06 118.179 140.072C118.353 140.092 118.528 140.111 118.702 140.138C118.889 140.167 119.062 140.241 119.249 140.266C119.561 140.309 119.875 140.383 120.167 140.503C120.579 140.671 121.04 140.729 121.438 140.923C121.7 141.051 121.942 141.212 122.193 141.363" stroke="black" stroke-width="2" stroke-linecap="round"/>
<path d="M122.287 141.433C122.549 141.486 122.842 141.715 123.056 141.868C123.297 142.04 123.512 142.247 123.753 142.417C124.003 142.595 124.299 142.729 124.566 142.879C125.007 143.128 125.433 143.434 125.832 143.746C126.121 143.971 126.473 144.08 126.762 144.307" stroke="black" stroke-width="2" stroke-linecap="round"/>
<path d="M126.88 144.566C127.282 144.695 127.653 144.904 128.021 145.108C128.28 145.252 128.524 145.406 128.768 145.575C129.068 145.782 129.39 145.938 129.701 146.126C130.221 146.44 130.695 146.889 131.153 147.285C131.684 147.745 132.281 148.125 132.846 148.544C133.113 148.742 133.392 148.987 133.592 149.253" stroke="black" stroke-width="2" stroke-linecap="round"/>
<path d="M151.065 62.9602C151.2 60.9952 151.659 60.3381 152.554 59.148C153.916 57.3374 157.206 56.502 159.736 57.3068C162.265 58.1115 163.627 60.7268 163.84 62.1657C164.048 63.572 164.406 65.7464 162.266 68.4673C160.893 70.2122 156.233 70.4791 153.916 69.207C152.922 68.544 151.233 66.8314 151.022 64.3679C150.984 63.9226 150.994 63.4528 151.065 62.9602Z" fill="black"/>
<path d="M151.022 64.4437C151.022 61.2554 151.464 60.5965 152.554 59.148C153.916 57.3374 157.206 56.502 159.736 57.3068C162.265 58.1115 163.627 60.7268 163.84 62.1657C164.048 63.572 164.406 65.7464 162.266 68.4673C160.893 70.2122 156.233 70.4791 153.916 69.207C152.743 68.424 150.598 66.177 151.065 62.9581" stroke="black"/>
<path d="M147 183C146.587 183.332 146.264 183.792 145.897 184.176C145.581 184.506 145.247 184.866 145.017 185.264C144.806 185.629 144.617 185.976 144.333 186.288C143.863 186.805 143.387 187.32 142.954 187.872C142.317 188.685 141.424 189.257 140.732 190.024C140.572 190.201 140.433 190.388 140.274 190.57C140.185 190.672 140.042 190.872 140 191" stroke="black" stroke-width="2" stroke-linecap="round"/>
<path d="M140 191C139.796 191.134 139.703 191.315 139.477 191.439C139.349 191.509 139.225 191.582 139.092 191.65C138.994 191.699 138.863 191.727 138.769 191.779C138.652 191.843 138.542 191.901 138.424 191.959C138.309 192.016 138.146 191.997 138 191.997" stroke="black" stroke-width="2" stroke-linecap="round"/>
<path d="M138 192C137.278 191.449 136.647 190.823 135.834 190.371C135.627 190.256 135.356 190.234 135.179 190.084C134.484 189.494 133.781 188.947 133.01 188.442C132.391 188.037 131.83 187.581 131.241 187.144C131.169 187.091 131.089 187.027 131 187" stroke="black" stroke-width="2" stroke-linecap="round"/>
<path d="M131 187C130.339 186.542 129.765 185.954 129.15 185.433C128.581 184.952 128.024 184.448 127.443 183.982C127.018 183.641 126.566 183.38 126.166 183.005C125.313 182.207 124.475 181.376 123.613 180.596C122.747 179.811 121.989 178.889 121.14 178.085C120.814 177.776 121.15 178.399 121.212 178.541C121.268 178.672 121.398 178.787 121.525 178.831" stroke="black" stroke-width="2" stroke-linecap="round"/>
<path d="M121 179C120.63 178.569 120.209 178.177 119.797 177.782C119.316 177.321 118.845 176.82 118.31 176.413C118.232 176.355 118.142 176.325 118.06 176.275C118.007 176.243 117.955 176.179 117.92 176.145C117.432 175.666 116.932 175.198 116.424 174.738C115.466 173.87 114.439 173.08 113.484 172.215C112.312 171.153 111.147 170.085 110 169" stroke="black" stroke-width="2" stroke-linecap="round"/>
<path d="M149.64 160.66C149.28 160.66 148.907 160.527 148.52 160.26C148.133 159.993 147.78 159.667 147.46 159.28C147.14 158.88 146.88 158.48 146.68 158.08C146.48 157.667 146.38 157.32 146.38 157.04C146.38 156.787 146.44 156.66 146.56 156.66C146.6 156.66 146.667 156.773 146.76 157C146.867 157.213 146.993 157.48 147.14 157.8C147.3 158.12 147.48 158.44 147.68 158.76C147.893 159.08 148.14 159.353 148.42 159.58C148.7 159.793 149.007 159.9 149.34 159.9C149.647 159.9 149.88 159.793 150.04 159.58C150.213 159.353 150.347 159.08 150.44 158.76C150.533 158.44 150.607 158.133 150.66 157.84C150.86 156.68 151.033 155.627 151.18 154.68C151.327 153.733 151.46 152.793 151.58 151.86C151.7 150.913 151.807 149.887 151.9 148.78C151.873 148.767 151.86 148.7 151.86 148.58C151.86 148.447 151.9 148.133 151.98 147.64H149.58C149.447 147.64 149.38 147.593 149.38 147.5C149.38 147.407 149.433 147.307 149.54 147.2C149.66 147.08 149.787 147.02 149.92 147.02H152.2C152.4 146.647 152.727 146.46 153.18 146.46C153.38 146.46 153.48 146.527 153.48 146.66V146.7L153.34 147C153.807 147 154.233 147 154.62 147C155.02 146.987 155.313 146.973 155.5 146.96C155.58 146.96 155.62 147 155.62 147.08C155.62 147.16 155.56 147.267 155.44 147.4C155.32 147.52 155.127 147.6 154.86 147.64H153.08L153.02 147.86C152.927 148.247 152.787 148.9 152.6 149.82C152.427 150.727 152.273 151.813 152.14 153.08C152.073 153.747 152.007 154.433 151.94 155.14C151.873 155.847 151.787 156.527 151.68 157.18C151.573 157.833 151.433 158.427 151.26 158.96C151.1 159.48 150.887 159.893 150.62 160.2C150.367 160.507 150.04 160.66 149.64 160.66Z" fill="black"/>
<path d="M148.52 160.26L149.088 159.437L149.088 159.437L148.52 160.26ZM147.46 159.28L146.679 159.905L146.684 159.911L146.69 159.918L147.46 159.28ZM146.68 158.08L145.78 158.516L145.786 158.527L146.68 158.08ZM146.76 157L145.835 157.381L145.849 157.415L145.866 157.447L146.76 157ZM147.14 157.8L146.231 158.217L146.238 158.232L146.246 158.247L147.14 157.8ZM147.68 158.76L146.832 159.29L146.84 159.302L146.848 159.315L147.68 158.76ZM148.42 159.58L147.791 160.357L147.802 160.367L147.814 160.375L148.42 159.58ZM150.04 159.58L149.246 158.973L149.24 158.98L150.04 159.58ZM150.44 158.76L149.48 158.48L150.44 158.76ZM150.66 157.84L151.644 158.019L151.645 158.01L150.66 157.84ZM151.18 154.68L152.168 154.833L152.168 154.833L151.18 154.68ZM151.58 151.86L152.572 151.988L152.572 151.986L151.58 151.86ZM151.9 148.78L152.896 148.864L152.953 148.189L152.347 147.886L151.9 148.78ZM151.98 147.64L152.967 147.8L153.155 146.64H151.98V147.64ZM149.54 147.2L148.833 146.493L148.833 146.493L149.54 147.2ZM152.2 147.02V148.02H152.799L153.081 147.492L152.2 147.02ZM153.48 146.7L154.386 147.123L154.48 146.922V146.7H153.48ZM153.34 147L152.434 146.577L151.77 148H153.34V147ZM154.62 147V148H154.637L154.653 147.999L154.62 147ZM155.5 146.96V145.96H155.464L155.429 145.963L155.5 146.96ZM155.44 147.4L156.147 148.107L156.166 148.089L156.183 148.069L155.44 147.4ZM154.86 147.64V148.64H154.935L155.008 148.629L154.86 147.64ZM153.08 147.64V146.64H152.316L152.115 147.377L153.08 147.64ZM153.02 147.86L152.055 147.597L152.051 147.611L152.048 147.625L153.02 147.86ZM152.6 149.82L151.62 149.621L151.618 149.632L152.6 149.82ZM152.14 153.08L151.145 152.975L151.145 152.98L152.14 153.08ZM151.94 155.14L150.944 155.046L150.944 155.046L151.94 155.14ZM151.68 157.18L152.667 157.341L152.667 157.341L151.68 157.18ZM151.26 158.96L150.309 158.651L150.307 158.658L150.304 158.666L151.26 158.96ZM150.62 160.2L149.865 159.544L149.857 159.553L149.849 159.563L150.62 160.2ZM149.64 159.66C149.536 159.66 149.358 159.623 149.088 159.437L147.952 161.083C148.455 161.43 149.024 161.66 149.64 161.66V159.66ZM149.088 159.437C148.782 159.226 148.496 158.963 148.23 158.642L146.69 159.918C147.064 160.37 147.485 160.761 147.952 161.083L149.088 159.437ZM148.241 158.655C147.959 158.303 147.739 157.961 147.574 157.633L145.786 158.527C146.021 158.999 146.321 159.457 146.679 159.905L148.241 158.655ZM147.58 157.644C147.409 157.29 147.38 157.102 147.38 157.04H145.38C145.38 157.538 145.551 158.043 145.78 158.516L147.58 157.644ZM147.38 157.04C147.38 156.961 147.394 157.044 147.329 157.183C147.29 157.266 147.209 157.394 147.057 157.502C146.895 157.615 146.716 157.66 146.56 157.66V155.66C146.344 155.66 146.112 155.721 145.906 155.866C145.708 156.005 145.59 156.181 145.521 156.327C145.396 156.592 145.38 156.866 145.38 157.04H147.38ZM146.56 157.66C146.327 157.66 146.153 157.578 146.057 157.52C145.961 157.462 145.898 157.4 145.867 157.367C145.833 157.33 145.81 157.3 145.799 157.284C145.787 157.268 145.78 157.256 145.778 157.252C145.775 157.247 145.794 157.281 145.835 157.381L147.685 156.619C147.633 156.493 147.571 156.356 147.502 156.238C147.47 156.183 147.411 156.089 147.323 155.996C147.279 155.949 147.013 155.66 146.56 155.66V157.66ZM145.866 157.447C145.965 157.647 146.087 157.903 146.231 158.217L148.049 157.383C147.9 157.057 147.768 156.78 147.654 156.553L145.866 157.447ZM146.246 158.247C146.42 158.597 146.616 158.945 146.832 159.29L148.528 158.23C148.344 157.935 148.18 157.643 148.034 157.353L146.246 158.247ZM146.848 159.315C147.114 159.713 147.427 160.063 147.791 160.357L149.049 158.803C148.853 158.644 148.673 158.447 148.512 158.205L146.848 159.315ZM147.814 160.375C148.258 160.714 148.775 160.9 149.34 160.9V158.9C149.238 158.9 149.142 158.873 149.026 158.785L147.814 160.375ZM149.34 160.9C149.908 160.9 150.461 160.685 150.84 160.18L149.24 158.98C149.246 158.971 149.258 158.958 149.275 158.944C149.293 158.93 149.311 158.919 149.329 158.911C149.366 158.894 149.377 158.9 149.34 158.9V160.9ZM150.834 160.187C151.094 159.848 151.278 159.459 151.4 159.04L149.48 158.48C149.416 158.701 149.333 158.859 149.246 158.973L150.834 160.187ZM151.4 159.04C151.502 158.691 151.584 158.35 151.644 158.019L149.676 157.661C149.63 157.917 149.565 158.189 149.48 158.48L151.4 159.04ZM151.645 158.01C151.846 156.846 152.021 155.786 152.168 154.833L150.192 154.527C150.046 155.467 149.874 156.514 149.675 157.67L151.645 158.01ZM152.168 154.833C152.316 153.878 152.451 152.93 152.572 151.988L150.588 151.732C150.469 152.657 150.337 153.589 150.192 154.527L152.168 154.833ZM152.572 151.986C152.694 151.023 152.802 149.982 152.896 148.864L150.904 148.696C150.811 149.791 150.706 150.803 150.588 151.734L152.572 151.986ZM152.347 147.886C152.609 148.017 152.731 148.221 152.777 148.313C152.827 148.412 152.845 148.494 152.851 148.524C152.863 148.586 152.86 148.616 152.86 148.58H150.86C150.86 148.664 150.864 148.787 150.889 148.916C150.902 148.98 150.928 149.088 150.988 149.207C151.044 149.319 151.177 149.537 151.453 149.674L152.347 147.886ZM152.86 148.58C152.86 148.583 152.862 148.527 152.882 148.372C152.9 148.231 152.928 148.041 152.967 147.8L150.993 147.48C150.917 147.947 150.86 148.349 150.86 148.58H152.86ZM151.98 146.64H149.58V148.64H151.98V146.64ZM149.58 146.64C149.599 146.64 149.792 146.638 150.003 146.786C150.121 146.868 150.226 146.985 150.295 147.131C150.363 147.273 150.38 147.404 150.38 147.5H148.38C148.38 147.818 148.514 148.184 148.857 148.424C149.135 148.619 149.427 148.64 149.58 148.64V146.64ZM150.38 147.5C150.38 147.649 150.337 147.762 150.302 147.826C150.27 147.886 150.242 147.912 150.247 147.907L148.833 146.493C148.649 146.676 148.38 147.018 148.38 147.5H150.38ZM150.247 147.907C150.243 147.912 150.213 147.941 150.153 147.969C150.09 147.999 150.009 148.02 149.92 148.02V146.02C149.454 146.02 149.087 146.239 148.833 146.493L150.247 147.907ZM149.92 148.02H152.2V146.02H149.92V148.02ZM153.081 147.492C153.088 147.48 153.093 147.472 153.097 147.467C153.1 147.462 153.102 147.46 153.102 147.46C153.102 147.46 153.101 147.461 153.099 147.463C153.096 147.465 153.094 147.467 153.091 147.468C153.085 147.472 153.085 147.47 153.097 147.468C153.109 147.465 153.135 147.46 153.18 147.46V145.46C152.815 145.46 152.441 145.536 152.099 145.732C151.753 145.93 151.496 146.217 151.319 146.548L153.081 147.492ZM153.18 147.46C153.178 147.46 153.146 147.46 153.094 147.449C153.043 147.437 152.952 147.41 152.85 147.342C152.742 147.27 152.638 147.162 152.567 147.02C152.498 146.882 152.48 146.752 152.48 146.66H154.48C154.48 146.302 154.322 145.919 153.96 145.678C153.669 145.484 153.36 145.46 153.18 145.46V147.46ZM152.48 146.66V146.7H154.48V146.66H152.48ZM152.574 146.277L152.434 146.577L154.246 147.423L154.386 147.123L152.574 146.277ZM153.34 148C153.341 148 153.342 148 153.343 148C153.344 148 153.345 148 153.345 148C153.346 148 153.347 148 153.348 148C153.349 148 153.35 148 153.351 148C153.352 148 153.353 148 153.354 148C153.355 148 153.355 148 153.356 148C153.357 148 153.358 148 153.359 148C153.36 148 153.361 148 153.362 148C153.363 148 153.364 148 153.365 148C153.365 148 153.366 148 153.367 148C153.368 148 153.369 148 153.37 148C153.371 148 153.372 148 153.373 148C153.374 148 153.375 148 153.375 148C153.376 148 153.377 148 153.378 148C153.379 148 153.38 148 153.381 148C153.382 148 153.383 148 153.384 148C153.385 148 153.385 148 153.386 148C153.387 148 153.388 148 153.389 148C153.39 148 153.391 148 153.392 148C153.393 148 153.394 148 153.395 148C153.395 148 153.396 148 153.397 148C153.398 148 153.399 148 153.4 148C153.401 148 153.402 148 153.403 148C153.404 148 153.404 148 153.405 148C153.406 148 153.407 148 153.408 148C153.409 148 153.41 148 153.411 148C153.412 148 153.413 148 153.414 148C153.414 148 153.415 148 153.416 148C153.417 148 153.418 148 153.419 148C153.42 148 153.421 148 153.422 148C153.423 148 153.423 148 153.424 148C153.425 148 153.426 148 153.427 148C153.428 148 153.429 148 153.43 148C153.431 148 153.432 148 153.432 148C153.433 148 153.434 148 153.435 148C153.436 148 153.437 148 153.438 148C153.439 148 153.44 148 153.441 148C153.441 148 153.442 148 153.443 148C153.444 148 153.445 148 153.446 148C153.447 148 153.448 148 153.449 148C153.45 148 153.45 148 153.451 148C153.452 148 153.453 148 153.454 148C153.455 148 153.456 148 153.457 148C153.458 148 153.459 148 153.459 148C153.46 148 153.461 148 153.462 148C153.463 148 153.464 148 153.465 148C153.466 148 153.467 148 153.468 148C153.468 148 153.469 148 153.47 148C153.471 148 153.472 148 153.473 148C153.474 148 153.475 148 153.476 148C153.476 148 153.477 148 153.478 148C153.479 148 153.48 148 153.481 148C153.482 148 153.483 148 153.484 148C153.485 148 153.485 148 153.486 148C153.487 148 153.488 148 153.489 148C153.49 148 153.491 148 153.492 148C153.493 148 153.493 148 153.494 148C153.495 148 153.496 148 153.497 148C153.498 148 153.499 148 153.5 148C153.501 148 153.502 148 153.502 148C153.503 148 153.504 148 153.505 148C153.506 148 153.507 148 153.508 148C153.509 148 153.51 148 153.51 148C153.511 148 153.512 148 153.513 148C153.514 148 153.515 148 153.516 148C153.517 148 153.518 148 153.518 148C153.519 148 153.52 148 153.521 148C153.522 148 153.523 148 153.524 148C153.525 148 153.526 148 153.526 148C153.527 148 153.528 148 153.529 148C153.53 148 153.531 148 153.532 148C153.533 148 153.534 148 153.535 148C153.535 148 153.536 148 153.537 148C153.538 148 153.539 148 153.54 148C153.541 148 153.542 148 153.543 148C153.543 148 153.544 148 153.545 148C153.546 148 153.547 148 153.548 148C153.549 148 153.55 148 153.551 148C153.551 148 153.552 148 153.553 148C153.554 148 153.555 148 153.556 148C153.557 148 153.558 148 153.558 148C153.559 148 153.56 148 153.561 148C153.562 148 153.563 148 153.564 148C153.565 148 153.566 148 153.566 148C153.567 148 153.568 148 153.569 148C153.57 148 153.571 148 153.572 148C153.573 148 153.574 148 153.574 148C153.575 148 153.576 148 153.577 148C153.578 148 153.579 148 153.58 148C153.581 148 153.582 148 153.582 148C153.583 148 153.584 148 153.585 148C153.586 148 153.587 148 153.588 148C153.589 148 153.589 148 153.59 148C153.591 148 153.592 148 153.593 148C153.594 148 153.595 148 153.596 148C153.597 148 153.597 148 153.598 148C153.599 148 153.6 148 153.601 148C153.602 148 153.603 148 153.604 148C153.604 148 153.605 148 153.606 148C153.607 148 153.608 148 153.609 148C153.61 148 153.611 148 153.612 148C153.612 148 153.613 148 153.614 148C153.615 148 153.616 148 153.617 148C153.618 148 153.619 148 153.619 148C153.62 148 153.621 148 153.622 148C153.623 148 153.624 148 153.625 148C153.626 148 153.626 148 153.627 148C153.628 148 153.629 148 153.63 148C153.631 148 153.632 148 153.633 148C153.633 148 153.634 148 153.635 148C153.636 148 153.637 148 153.638 148C153.639 148 153.64 148 153.641 148C153.641 148 153.642 148 153.643 148C153.644 148 153.645 148 153.646 148C153.647 148 153.648 148 153.648 148C153.649 148 153.65 148 153.651 148C153.652 148 153.653 148 153.654 148C153.655 148 153.655 148 153.656 148C153.657 148 153.658 148 153.659 148C153.66 148 153.661 148 153.662 148C153.662 148 153.663 148 153.664 148C153.665 148 153.666 148 153.667 148C153.668 148 153.669 148 153.669 148C153.67 148 153.671 148 153.672 148C153.673 148 153.674 148 153.675 148C153.676 148 153.676 148 153.677 148C153.678 148 153.679 148 153.68 148C153.681 148 153.682 148 153.683 148C153.683 148 153.684 148 153.685 148C153.686 148 153.687 148 153.688 148C153.689 148 153.689 148 153.69 148C153.691 148 153.692 148 153.693 148C153.694 148 153.695 148 153.696 148C153.696 148 153.697 148 153.698 148C153.699 148 153.7 148 153.701 148C153.702 148 153.703 148 153.703 148C153.704 148 153.705 148 153.706 148C153.707 148 153.708 148 153.709 148C153.71 148 153.71 148 153.711 148C153.712 148 153.713 148 153.714 148C153.715 148 153.716 148 153.716 148C153.717 148 153.718 148 153.719 148C153.72 148 153.721 148 153.722 148C153.723 148 153.723 148 153.724 148C153.725 148 153.726 148 153.727 148C153.728 148 153.729 148 153.729 148C153.73 148 153.731 148 153.732 148C153.733 148 153.734 148 153.735 148C153.736 148 153.736 148 153.737 148C153.738 148 153.739 148 153.74 148C153.741 148 153.742 148 153.742 148C153.743 148 153.744 148 153.745 148C153.746 148 153.747 148 153.748 148C153.749 148 153.749 148 153.75 148C153.751 148 153.752 148 153.753 148C153.754 148 153.755 148 153.755 148C153.756 148 153.757 148 153.758 148C153.759 148 153.76 148 153.761 148C153.761 148 153.762 148 153.763 148C153.764 148 153.765 148 153.766 148C153.767 148 153.768 148 153.768 148C153.769 148 153.77 148 153.771 148C153.772 148 153.773 148 153.774 148C153.774 148 153.775 148 153.776 148C153.777 148 153.778 148 153.779 148C153.78 148 153.78 148 153.781 148C153.782 148 153.783 148 153.784 148C153.785 148 153.786 148 153.786 148C153.787 148 153.788 148 153.789 148C153.79 148 153.791 148 153.792 148C153.792 148 153.793 148 153.794 148C153.795 148 153.796 148 153.797 148C153.798 148 153.798 148 153.799 148C153.8 148 153.801 148 153.802 148C153.803 148 153.804 148 153.805 148C153.805 148 153.806 148 153.807 148C153.808 148 153.809 148 153.81 148C153.811 148 153.811 148 153.812 148C153.813 148 153.814 148 153.815 148C153.816 148 153.817 148 153.817 148C153.818 148 153.819 148 153.82 148C153.821 148 153.822 148 153.822 148C153.823 148 153.824 148 153.825 148C153.826 148 153.827 148 153.828 148C153.828 148 153.829 148 153.83 148C153.831 148 153.832 148 153.833 148C153.834 148 153.834 148 153.835 148C153.836 148 153.837 148 153.838 148C153.839 148 153.84 148 153.84 148C153.841 148 153.842 148 153.843 148C153.844 148 153.845 148 153.846 148C153.846 148 153.847 148 153.848 148C153.849 148 153.85 148 153.851 148C153.852 148 153.852 148 153.853 148C153.854 148 153.855 148 153.856 148C153.857 148 153.858 148 153.858 148C153.859 148 153.86 148 153.861 148C153.862 148 153.863 148 153.863 148C153.864 148 153.865 148 153.866 148C153.867 148 153.868 148 153.869 148C153.869 148 153.87 148 153.871 148C153.872 148 153.873 148 153.874 148C153.875 148 153.875 148 153.876 148C153.877 148 153.878 148 153.879 148C153.88 148 153.88 148 153.881 148C153.882 148 153.883 148 153.884 148C153.885 148 153.886 148 153.886 148C153.887 148 153.888 148 153.889 148C153.89 148 153.891 148 153.891 148C153.892 148 153.893 148 153.894 148C153.895 148 153.896 148 153.897 148C153.897 148 153.898 148 153.899 148C153.9 148 153.901 148 153.902 148C153.903 148 153.903 148 153.904 148C153.905 148 153.906 148 153.907 148C153.908 148 153.908 148 153.909 148C153.91 148 153.911 148 153.912 148C153.913 148 153.914 148 153.914 148C153.915 148 153.916 148 153.917 148C153.918 148 153.919 148 153.919 148C153.92 148 153.921 148 153.922 148C153.923 148 153.924 148 153.924 148C153.925 148 153.926 148 153.927 148C153.928 148 153.929 148 153.93 148C153.93 148 153.931 148 153.932 148C153.933 148 153.934 148 153.935 148C153.935 148 153.936 148 153.937 148C153.938 148 153.939 148 153.94 148C153.94 148 153.941 148 153.942 148C153.943 148 153.944 148 153.945 148C153.946 148 153.946 148 153.947 148C153.948 148 153.949 148 153.95 148C153.951 148 153.951 148 153.952 148C153.953 148 153.954 148 153.955 148C153.956 148 153.956 148 153.957 148C153.958 148 153.959 148 153.96 148C153.961 148 153.962 148 153.962 148C153.963 148 153.964 148 153.965 148C153.966 148 153.967 148 153.967 148C153.968 148 153.969 148 153.97 148C153.971 148 153.972 148 153.972 148C153.973 148 153.974 148 153.975 148C153.976 148 153.977 148 153.977 148C153.978 148 153.979 148 153.98 148C153.981 148 153.982 148 153.982 148C153.983 148 153.984 148 153.985 148C153.986 148 153.987 148 153.987 148C153.988 148 153.989 148 153.99 148C153.991 148 153.992 148 153.992 148C153.993 148 153.994 148 153.995 148C153.996 148 153.997 148 153.997 148C153.998 148 153.999 148 154 148C154.001 148 154.002 148 154.003 148C154.003 148 154.004 148 154.005 148C154.006 148 154.007 148 154.008 148C154.008 148 154.009 148 154.01 148C154.011 148 154.012 148 154.013 148C154.013 148 154.014 148 154.015 148C154.016 148 154.017 148 154.018 148C154.018 148 154.019 148 154.02 148C154.021 148 154.022 148 154.022 148C154.023 148 154.024 148 154.025 148C154.026 148 154.027 148 154.027 148C154.028 148 154.029 148 154.03 148C154.031 148 154.032 148 154.032 148C154.033 148 154.034 148 154.035 148C154.036 148 154.037 148 154.037 148C154.038 148 154.039 148 154.04 148C154.041 148 154.042 148 154.042 148C154.043 148 154.044 148 154.045 148C154.046 148 154.047 148 154.047 148C154.048 148 154.049 148 154.05 148C154.051 148 154.052 148 154.052 148C154.053 148 154.054 148 154.055 148C154.056 148 154.057 148 154.057 148C154.058 148 154.059 148 154.06 148C154.061 148 154.061 148 154.062 148C154.063 148 154.064 148 154.065 148C154.066 148 154.066 148 154.067 148C154.068 148 154.069 148 154.07 148C154.071 148 154.071 148 154.072 148C154.073 148 154.074 148 154.075 148C154.076 148 154.076 148 154.077 148C154.078 148 154.079 148 154.08 148C154.08 148 154.081 148 154.082 148C154.083 148 154.084 148 154.085 148C154.085 148 154.086 148 154.087 148C154.088 148 154.089 148 154.09 148C154.09 148 154.091 148 154.092 148C154.093 148 154.094 148 154.094 148C154.095 148 154.096 148 154.097 148C154.098 148 154.099 148 154.099 148C154.1 148 154.101 148 154.102 148C154.103 148 154.104 148 154.104 148C154.105 148 154.106 148 154.107 148C154.108 148 154.108 148 154.109 148C154.11 148 154.111 148 154.112 148C154.113 148 154.113 148 154.114 148C154.115 148 154.116 148 154.117 148C154.117 148 154.118 148 154.119 148C154.12 148 154.121 148 154.122 148C154.122 148 154.123 148 154.124 148C154.125 148 154.126 148 154.126 148C154.127 148 154.128 148 154.129 148C154.13 148 154.131 148 154.131 148C154.132 148 154.133 148 154.134 148C154.135 148 154.135 148 154.136 148C154.137 148 154.138 148 154.139 148C154.14 148 154.14 148 154.141 148C154.142 148 154.143 148 154.144 148C154.144 148 154.145 148 154.146 148C154.147 148 154.148 148 154.149 148C154.149 148 154.15 148 154.151 148C154.152 148 154.153 148 154.153 148C154.154 148 154.155 148 154.156 148C154.157 148 154.158 148 154.158 148C154.159 148 154.16 148 154.161 148C154.162 148 154.162 148 154.163 148C154.164 148 154.165 148 154.166 148C154.167 148 154.167 148 154.168 148C154.169 148 154.17 148 154.171 148C154.171 148 154.172 148 154.173 148C154.174 148 154.175 148 154.175 148C154.176 148 154.177 148 154.178 148C154.179 148 154.18 148 154.18 148C154.181 148 154.182 148 154.183 148C154.184 148 154.184 148 154.185 148C154.186 148 154.187 148 154.188 148C154.188 148 154.189 148 154.19 148C154.191 148 154.192 148 154.192 148C154.193 148 154.194 148 154.195 148C154.196 148 154.197 148 154.197 148C154.198 148 154.199 148 154.2 148C154.201 148 154.201 148 154.202 148C154.203 148 154.204 148 154.205 148C154.205 148 154.206 148 154.207 148C154.208 148 154.209 148 154.21 148C154.21 148 154.211 148 154.212 148C154.213 148 154.214 148 154.214 148C154.215 148 154.216 148 154.217 148C154.218 148 154.218 148 154.219 148C154.22 148 154.221 148 154.222 148C154.222 148 154.223 148 154.224 148C154.225 148 154.226 148 154.226 148C154.227 148 154.228 148 154.229 148C154.23 148 154.23 148 154.231 148C154.232 148 154.233 148 154.234 148C154.235 148 154.235 148 154.236 148C154.237 148 154.238 148 154.239 148C154.239 148 154.24 148 154.241 148C154.242 148 154.243 148 154.243 148C154.244 148 154.245 148 154.246 148C154.247 148 154.247 148 154.248 148C154.249 148 154.25 148 154.251 148C154.251 148 154.252 148 154.253 148C154.254 148 154.255 148 154.255 148C154.256 148 154.257 148 154.258 148C154.259 148 154.259 148 154.26 148C154.261 148 154.262 148 154.263 148C154.263 148 154.264 148 154.265 148C154.266 148 154.267 148 154.267 148C154.268 148 154.269 148 154.27 148C154.271 148 154.271 148 154.272 148C154.273 148 154.274 148 154.275 148C154.275 148 154.276 148 154.277 148C154.278 148 154.279 148 154.279 148C154.28 148 154.281 148 154.282 148C154.283 148 154.283 148 154.284 148C154.285 148 154.286 148 154.287 148C154.287 148 154.288 148 154.289 148C154.29 148 154.291 148 154.291 148C154.292 148 154.293 148 154.294 148C154.295 148 154.295 148 154.296 148C154.297 148 154.298 148 154.299 148C154.299 148 154.3 148 154.301 148C154.302 148 154.303 148 154.303 148C154.304 148 154.305 148 154.306 148C154.307 148 154.307 148 154.308 148C154.309 148 154.31 148 154.311 148C154.311 148 154.312 148 154.313 148C154.314 148 154.315 148 154.315 148C154.316 148 154.317 148 154.318 148C154.319 148 154.319 148 154.32 148C154.321 148 154.322 148 154.323 148C154.323 148 154.324 148 154.325 148C154.326 148 154.326 148 154.327 148C154.328 148 154.329 148 154.33 148C154.33 148 154.331 148 154.332 148C154.333 148 154.334 148 154.334 148C154.335 148 154.336 148 154.337 148C154.338 148 154.338 148 154.339 148C154.34 148 154.341 148 154.342 148C154.342 148 154.343 148 154.344 148C154.345 148 154.345 148 154.346 148C154.347 148 154.348 148 154.349 148C154.349 148 154.35 148 154.351 148C154.352 148 154.353 148 154.353 148C154.354 148 154.355 148 154.356 148C154.357 148 154.357 148 154.358 148C154.359 148 154.36 148 154.361 148C154.361 148 154.362 148 154.363 148C154.364 148 154.364 148 154.365 148C154.366 148 154.367 148 154.368 148C154.368 148 154.369 148 154.37 148C154.371 148 154.372 148 154.372 148C154.373 148 154.374 148 154.375 148C154.375 148 154.376 148 154.377 148C154.378 148 154.379 148 154.379 148C154.38 148 154.381 148 154.382 148C154.383 148 154.383 148 154.384 148C154.385 148 154.386 148 154.387 148C154.387 148 154.388 148 154.389 148C154.39 148 154.39 148 154.391 148C154.392 148 154.393 148 154.394 148C154.394 148 154.395 148 154.396 148C154.397 148 154.398 148 154.398 148C154.399 148 154.4 148 154.401 148C154.401 148 154.402 148 154.403 148C154.404 148 154.405 148 154.405 148C154.406 148 154.407 148 154.408 148C154.408 148 154.409 148 154.41 148C154.411 148 154.412 148 154.412 148C154.413 148 154.414 148 154.415 148C154.416 148 154.416 148 154.417 148C154.418 148 154.419 148 154.419 148C154.42 148 154.421 148 154.422 148C154.423 148 154.423 148 154.424 148C154.425 148 154.426 148 154.426 148C154.427 148 154.428 148 154.429 148C154.43 148 154.43 148 154.431 148C154.432 148 154.433 148 154.433 148C154.434 148 154.435 148 154.436 148C154.437 148 154.437 148 154.438 148C154.439 148 154.44 148 154.441 148C154.441 148 154.442 148 154.443 148C154.444 148 154.444 148 154.445 148C154.446 148 154.447 148 154.448 148C154.448 148 154.449 148 154.45 148C154.451 148 154.451 148 154.452 148C154.453 148 154.454 148 154.455 148C154.455 148 154.456 148 154.457 148C154.458 148 154.458 148 154.459 148C154.46 148 154.461 148 154.461 148C154.462 148 154.463 148 154.464 148C154.465 148 154.465 148 154.466 148C154.467 148 154.468 148 154.468 148C154.469 148 154.47 148 154.471 148C154.472 148 154.472 148 154.473 148C154.474 148 154.475 148 154.475 148C154.476 148 154.477 148 154.478 148C154.479 148 154.479 148 154.48 148C154.481 148 154.482 148 154.482 148C154.483 148 154.484 148 154.485 148C154.486 148 154.486 148 154.487 148C154.488 148 154.489 148 154.489 148C154.49 148 154.491 148 154.492 148C154.492 148 154.493 148 154.494 148C154.495 148 154.496 148 154.496 148C154.497 148 154.498 148 154.499 148C154.499 148 154.5 148 154.501 148C154.502 148 154.502 148 154.503 148C154.504 148 154.505 148 154.506 148C154.506 148 154.507 148 154.508 148C154.509 148 154.509 148 154.51 148C154.511 148 154.512 148 154.513 148C154.513 148 154.514 148 154.515 148C154.516 148 154.516 148 154.517 148C154.518 148 154.519 148 154.519 148C154.52 148 154.521 148 154.522 148C154.523 148 154.523 148 154.524 148C154.525 148 154.526 148 154.526 148C154.527 148 154.528 148 154.529 148C154.529 148 154.53 148 154.531 148C154.532 148 154.532 148 154.533 148C154.534 148 154.535 148 154.536 148C154.536 148 154.537 148 154.538 148C154.539 148 154.539 148 154.54 148C154.541 148 154.542 148 154.542 148C154.543 148 154.544 148 154.545 148C154.546 148 154.546 148 154.547 148C154.548 148 154.549 148 154.549 148C154.55 148 154.551 148 154.552 148C154.552 148 154.553 148 154.554 148C154.555 148 154.555 148 154.556 148C154.557 148 154.558 148 154.559 148C154.559 148 154.56 148 154.561 148C154.562 148 154.562 148 154.563 148C154.564 148 154.565 148 154.565 148C154.566 148 154.567 148 154.568 148C154.568 148 154.569 148 154.57 148C154.571 148 154.571 148 154.572 148C154.573 148 154.574 148 154.575 148C154.575 148 154.576 148 154.577 148C154.578 148 154.578 148 154.579 148C154.58 148 154.581 148 154.581 148C154.582 148 154.583 148 154.584 148C154.584 148 154.585 148 154.586 148C154.587 148 154.587 148 154.588 148C154.589 148 154.59 148 154.59 148C154.591 148 154.592 148 154.593 148C154.594 148 154.594 148 154.595 148C154.596 148 154.597 148 154.597 148C154.598 148 154.599 148 154.6 148C154.6 148 154.601 148 154.602 148C154.603 148 154.603 148 154.604 148C154.605 148 154.606 148 154.606 148C154.607 148 154.608 148 154.609 148C154.609 148 154.61 148 154.611 148C154.612 148 154.612 148 154.613 148C154.614 148 154.615 148 154.615 148C154.616 148 154.617 148 154.618 148C154.618 148 154.619 148 154.62 148V146C154.619 146 154.618 146 154.618 146C154.617 146 154.616 146 154.615 146C154.615 146 154.614 146 154.613 146C154.612 146 154.612 146 154.611 146C154.61 146 154.609 146 154.609 146C154.608 146 154.607 146 154.606 146C154.606 146 154.605 146 154.604 146C154.603 146 154.603 146 154.602 146C154.601 146 154.6 146 154.6 146C154.599 146 154.598 146 154.597 146C154.597 146 154.596 146 154.595 146C154.594 146 154.594 146 154.593 146C154.592 146 154.591 146 154.59 146C154.59 146 154.589 146 154.588 146C154.587 146 154.587 146 154.586 146C154.585 146 154.584 146 154.584 146C154.583 146 154.582 146 154.581 146C154.581 146 154.58 146 154.579 146C154.578 146 154.578 146 154.577 146C154.576 146 154.575 146 154.575 146C154.574 146 154.573 146 154.572 146C154.571 146 154.571 146 154.57 146C154.569 146 154.568 146 154.568 146C154.567 146 154.566 146 154.565 146C154.565 146 154.564 146 154.563 146C154.562 146 154.562 146 154.561 146C154.56 146 154.559 146 154.559 146C154.558 146 154.557 146 154.556 146C154.555 146 154.555 146 154.554 146C154.553 146 154.552 146 154.552 146C154.551 146 154.55 146 154.549 146C154.549 146 154.548 146 154.547 146C154.546 146 154.546 146 154.545 146C154.544 146 154.543 146 154.542 146C154.542 146 154.541 146 154.54 146C154.539 146 154.539 146 154.538 146C154.537 146 154.536 146 154.536 146C154.535 146 154.534 146 154.533 146C154.532 146 154.532 146 154.531 146C154.53 146 154.529 146 154.529 146C154.528 146 154.527 146 154.526 146C154.526 146 154.525 146 154.524 146C154.523 146 154.523 146 154.522 146C154.521 146 154.52 146 154.519 146C154.519 146 154.518 146 154.517 146C154.516 146 154.516 146 154.515 146C154.514 146 154.513 146 154.513 146C154.512 146 154.511 146 154.51 146C154.509 146 154.509 146 154.508 146C154.507 146 154.506 146 154.506 146C154.505 146 154.504 146 154.503 146C154.502 146 154.502 146 154.501 146C154.5 146 154.499 146 154.499 146C154.498 146 154.497 146 154.496 146C154.496 146 154.495 146 154.494 146C154.493 146 154.492 146 154.492 146C154.491 146 154.49 146 154.489 146C154.489 146 154.488 146 154.487 146C154.486 146 154.486 146 154.485 146C154.484 146 154.483 146 154.482 146C154.482 146 154.481 146 154.48 146C154.479 146 154.479 146 154.478 146C154.477 146 154.476 146 154.475 146C154.475 146 154.474 146 154.473 146C154.472 146 154.472 146 154.471 146C154.47 146 154.469 146 154.468 146C154.468 146 154.467 146 154.466 146C154.465 146 154.465 146 154.464 146C154.463 146 154.462 146 154.461 146C154.461 146 154.46 146 154.459 146C154.458 146 154.458 146 154.457 146C154.456 146 154.455 146 154.455 146C154.454 146 154.453 146 154.452 146C154.451 146 154.451 146 154.45 146C154.449 146 154.448 146 154.448 146C154.447 146 154.446 146 154.445 146C154.444 146 154.444 146 154.443 146C154.442 146 154.441 146 154.441 146C154.44 146 154.439 146 154.438 146C154.437 146 154.437 146 154.436 146C154.435 146 154.434 146 154.433 146C154.433 146 154.432 146 154.431 146C154.43 146 154.43 146 154.429 146C154.428 146 154.427 146 154.426 146C154.426 146 154.425 146 154.424 146C154.423 146 154.423 146 154.422 146C154.421 146 154.42 146 154.419 146C154.419 146 154.418 146 154.417 146C154.416 146 154.416 146 154.415 146C154.414 146 154.413 146 154.412 146C154.412 146 154.411 146 154.41 146C154.409 146 154.408 146 154.408 146C154.407 146 154.406 146 154.405 146C154.405 146 154.404 146 154.403 146C154.402 146 154.401 146 154.401 146C154.4 146 154.399 146 154.398 146C154.398 146 154.397 146 154.396 146C154.395 146 154.394 146 154.394 146C154.393 146 154.392 146 154.391 146C154.39 146 154.39 146 154.389 146C154.388 146 154.387 146 154.387 146C154.386 146 154.385 146 154.384 146C154.383 146 154.383 146 154.382 146C154.381 146 154.38 146 154.379 146C154.379 146 154.378 146 154.377 146C154.376 146 154.375 146 154.375 146C154.374 146 154.373 146 154.372 146C154.372 146 154.371 146 154.37 146C154.369 146 154.368 146 154.368 146C154.367 146 154.366 146 154.365 146C154.364 146 154.364 146 154.363 146C154.362 146 154.361 146 154.361 146C154.36 146 154.359 146 154.358 146C154.357 146 154.357 146 154.356 146C154.355 146 154.354 146 154.353 146C154.353 146 154.352 146 154.351 146C154.35 146 154.349 146 154.349 146C154.348 146 154.347 146 154.346 146C154.345 146 154.345 146 154.344 146C154.343 146 154.342 146 154.342 146C154.341 146 154.34 146 154.339 146C154.338 146 154.338 146 154.337 146C154.336 146 154.335 146 154.334 146C154.334 146 154.333 146 154.332 146C154.331 146 154.33 146 154.33 146C154.329 146 154.328 146 154.327 146C154.326 146 154.326 146 154.325 146C154.324 146 154.323 146 154.323 146C154.322 146 154.321 146 154.32 146C154.319 146 154.319 146 154.318 146C154.317 146 154.316 146 154.315 146C154.315 146 154.314 146 154.313 146C154.312 146 154.311 146 154.311 146C154.31 146 154.309 146 154.308 146C154.307 146 154.307 146 154.306 146C154.305 146 154.304 146 154.303 146C154.303 146 154.302 146 154.301 146C154.3 146 154.299 146 154.299 146C154.298 146 154.297 146 154.296 146C154.295 146 154.295 146 154.294 146C154.293 146 154.292 146 154.291 146C154.291 146 154.29 146 154.289 146C154.288 146 154.287 146 154.287 146C154.286 146 154.285 146 154.284 146C154.283 146 154.283 146 154.282 146C154.281 146 154.28 146 154.279 146C154.279 146 154.278 146 154.277 146C154.276 146 154.275 146 154.275 146C154.274 146 154.273 146 154.272 146C154.271 146 154.271 146 154.27 146C154.269 146 154.268 146 154.267 146C154.267 146 154.266 146 154.265 146C154.264 146 154.263 146 154.263 146C154.262 146 154.261 146 154.26 146C154.259 146 154.259 146 154.258 146C154.257 146 154.256 146 154.255 146C154.255 146 154.254 146 154.253 146C154.252 146 154.251 146 154.251 146C154.25 146 154.249 146 154.248 146C154.247 146 154.247 146 154.246 146C154.245 146 154.244 146 154.243 146C154.243 146 154.242 146 154.241 146C154.24 146 154.239 146 154.239 146C154.238 146 154.237 146 154.236 146C154.235 146 154.235 146 154.234 146C154.233 146 154.232 146 154.231 146C154.23 146 154.23 146 154.229 146C154.228 146 154.227 146 154.226 146C154.226 146 154.225 146 154.224 146C154.223 146 154.222 146 154.222 146C154.221 146 154.22 146 154.219 146C154.218 146 154.218 146 154.217 146C154.216 146 154.215 146 154.214 146C154.214 146 154.213 146 154.212 146C154.211 146 154.21 146 154.21 146C154.209 146 154.208 146 154.207 146C154.206 146 154.205 146 154.205 146C154.204 146 154.203 146 154.202 146C154.201 146 154.201 146 154.2 146C154.199 146 154.198 146 154.197 146C154.197 146 154.196 146 154.195 146C154.194 146 154.193 146 154.192 146C154.192 146 154.191 146 154.19 146C154.189 146 154.188 146 154.188 146C154.187 146 154.186 146 154.185 146C154.184 146 154.184 146 154.183 146C154.182 146 154.181 146 154.18 146C154.18 146 154.179 146 154.178 146C154.177 146 154.176 146 154.175 146C154.175 146 154.174 146 154.173 146C154.172 146 154.171 146 154.171 146C154.17 146 154.169 146 154.168 146C154.167 146 154.167 146 154.166 146C154.165 146 154.164 146 154.163 146C154.162 146 154.162 146 154.161 146C154.16 146 154.159 146 154.158 146C154.158 146 154.157 146 154.156 146C154.155 146 154.154 146 154.153 146C154.153 146 154.152 146 154.151 146C154.15 146 154.149 146 154.149 146C154.148 146 154.147 146 154.146 146C154.145 146 154.144 146 154.144 146C154.143 146 154.142 146 154.141 146C154.14 146 154.14 146 154.139 146C154.138 146 154.137 146 154.136 146C154.135 146 154.135 146 154.134 146C154.133 146 154.132 146 154.131 146C154.131 146 154.13 146 154.129 146C154.128 146 154.127 146 154.126 146C154.126 146 154.125 146 154.124 146C154.123 146 154.122 146 154.122 146C154.121 146 154.12 146 154.119 146C154.118 146 154.117 146 154.117 146C154.116 146 154.115 146 154.114 146C154.113 146 154.113 146 154.112 146C154.111 146 154.11 146 154.109 146C154.108 146 154.108 146 154.107 146C154.106 146 154.105 146 154.104 146C154.104 146 154.103 146 154.102 146C154.101 146 154.1 146 154.099 146C154.099 146 154.098 146 154.097 146C154.096 146 154.095 146 154.094 146C154.094 146 154.093 146 154.092 146C154.091 146 154.09 146 154.09 146C154.089 146 154.088 146 154.087 146C154.086 146 154.085 146 154.085 146C154.084 146 154.083 146 154.082 146C154.081 146 154.08 146 154.08 146C154.079 146 154.078 146 154.077 146C154.076 146 154.076 146 154.075 146C154.074 146 154.073 146 154.072 146C154.071 146 154.071 146 154.07 146C154.069 146 154.068 146 154.067 146C154.066 146 154.066 146 154.065 146C154.064 146 154.063 146 154.062 146C154.061 146 154.061 146 154.06 146C154.059 146 154.058 146 154.057 146C154.057 146 154.056 146 154.055 146C154.054 146 154.053 146 154.052 146C154.052 146 154.051 146 154.05 146C154.049 146 154.048 146 154.047 146C154.047 146 154.046 146 154.045 146C154.044 146 154.043 146 154.042 146C154.042 146 154.041 146 154.04 146C154.039 146 154.038 146 154.037 146C154.037 146 154.036 146 154.035 146C154.034 146 154.033 146 154.032 146C154.032 146 154.031 146 154.03 146C154.029 146 154.028 146 154.027 146C154.027 146 154.026 146 154.025 146C154.024 146 154.023 146 154.022 146C154.022 146 154.021 146 154.02 146C154.019 146 154.018 146 154.018 146C154.017 146 154.016 146 154.015 146C154.014 146 154.013 146 154.013 146C154.012 146 154.011 146 154.01 146C154.009 146 154.008 146 154.008 146C154.007 146 154.006 146 154.005 146C154.004 146 154.003 146 154.003 146C154.002 146 154.001 146 154 146C153.999 146 153.998 146 153.997 146C153.997 146 153.996 146 153.995 146C153.994 146 153.993 146 153.992 146C153.992 146 153.991 146 153.99 146C153.989 146 153.988 146 153.987 146C153.987 146 153.986 146 153.985 146C153.984 146 153.983 146 153.982 146C153.982 146 153.981 146 153.98 146C153.979 146 153.978 146 153.977 146C153.977 146 153.976 146 153.975 146C153.974 146 153.973 146 153.972 146C153.972 146 153.971 146 153.97 146C153.969 146 153.968 146 153.967 146C153.967 146 153.966 146 153.965 146C153.964 146 153.963 146 153.962 146C153.962 146 153.961 146 153.96 146C153.959 146 153.958 146 153.957 146C153.956 146 153.956 146 153.955 146C153.954 146 153.953 146 153.952 146C153.951 146 153.951 146 153.95 146C153.949 146 153.948 146 153.947 146C153.946 146 153.946 146 153.945 146C153.944 146 153.943 146 153.942 146C153.941 146 153.94 146 153.94 146C153.939 146 153.938 146 153.937 146C153.936 146 153.935 146 153.935 146C153.934 146 153.933 146 153.932 146C153.931 146 153.93 146 153.93 146C153.929 146 153.928 146 153.927 146C153.926 146 153.925 146 153.924 146C153.924 146 153.923 146 153.922 146C153.921 146 153.92 146 153.919 146C153.919 146 153.918 146 153.917 146C153.916 146 153.915 146 153.914 146C153.914 146 153.913 146 153.912 146C153.911 146 153.91 146 153.909 146C153.908 146 153.908 146 153.907 146C153.906 146 153.905 146 153.904 146C153.903 146 153.903 146 153.902 146C153.901 146 153.9 146 153.899 146C153.898 146 153.897 146 153.897 146C153.896 146 153.895 146 153.894 146C153.893 146 153.892 146 153.891 146C153.891 146 153.89 146 153.889 146C153.888 146 153.887 146 153.886 146C153.886 146 153.885 146 153.884 146C153.883 146 153.882 146 153.881 146C153.88 146 153.88 146 153.879 146C153.878 146 153.877 146 153.876 146C153.875 146 153.875 146 153.874 146C153.873 146 153.872 146 153.871 146C153.87 146 153.869 146 153.869 146C153.868 146 153.867 146 153.866 146C153.865 146 153.864 146 153.863 146C153.863 146 153.862 146 153.861 146C153.86 146 153.859 146 153.858 146C153.858 146 153.857 146 153.856 146C153.855 146 153.854 146 153.853 146C153.852 146 153.852 146 153.851 146C153.85 146 153.849 146 153.848 146C153.847 146 153.846 146 153.846 146C153.845 146 153.844 146 153.843 146C153.842 146 153.841 146 153.84 146C153.84 146 153.839 146 153.838 146C153.837 146 153.836 146 153.835 146C153.834 146 153.834 146 153.833 146C153.832 146 153.831 146 153.83 146C153.829 146 153.828 146 153.828 146C153.827 146 153.826 146 153.825 146C153.824 146 153.823 146 153.822 146C153.822 146 153.821 146 153.82 146C153.819 146 153.818 146 153.817 146C153.817 146 153.816 146 153.815 146C153.814 146 153.813 146 153.812 146C153.811 146 153.811 146 153.81 146C153.809 146 153.808 146 153.807 146C153.806 146 153.805 146 153.805 146C153.804 146 153.803 146 153.802 146C153.801 146 153.8 146 153.799 146C153.798 146 153.798 146 153.797 146C153.796 146 153.795 146 153.794 146C153.793 146 153.792 146 153.792 146C153.791 146 153.79 146 153.789 146C153.788 146 153.787 146 153.786 146C153.786 146 153.785 146 153.784 146C153.783 146 153.782 146 153.781 146C153.78 146 153.78 146 153.779 146C153.778 146 153.777 146 153.776 146C153.775 146 153.774 146 153.774 146C153.773 146 153.772 146 153.771 146C153.77 146 153.769 146 153.768 146C153.768 146 153.767 146 153.766 146C153.765 146 153.764 146 153.763 146C153.762 146 153.761 146 153.761 146C153.76 146 153.759 146 153.758 146C153.757 146 153.756 146 153.755 146C153.755 146 153.754 146 153.753 146C153.752 146 153.751 146 153.75 146C153.749 146 153.749 146 153.748 146C153.747 146 153.746 146 153.745 146C153.744 146 153.743 146 153.742 146C153.742 146 153.741 146 153.74 146C153.739 146 153.738 146 153.737 146C153.736 146 153.736 146 153.735 146C153.734 146 153.733 146 153.732 146C153.731 146 153.73 146 153.729 146C153.729 146 153.728 146 153.727 146C153.726 146 153.725 146 153.724 146C153.723 146 153.723 146 153.722 146C153.721 146 153.72 146 153.719 146C153.718 146 153.717 146 153.716 146C153.716 146 153.715 146 153.714 146C153.713 146 153.712 146 153.711 146C153.71 146 153.71 146 153.709 146C153.708 146 153.707 146 153.706 146C153.705 146 153.704 146 153.703 146C153.703 146 153.702 146 153.701 146C153.7 146 153.699 146 153.698 146C153.697 146 153.696 146 153.696 146C153.695 146 153.694 146 153.693 146C153.692 146 153.691 146 153.69 146C153.689 146 153.689 146 153.688 146C153.687 146 153.686 146 153.685 146C153.684 146 153.683 146 153.683 146C153.682 146 153.681 146 153.68 146C153.679 146 153.678 146 153.677 146C153.676 146 153.676 146 153.675 146C153.674 146 153.673 146 153.672 146C153.671 146 153.67 146 153.669 146C153.669 146 153.668 146 153.667 146C153.666 146 153.665 146 153.664 146C153.663 146 153.662 146 153.662 146C153.661 146 153.66 146 153.659 146C153.658 146 153.657 146 153.656 146C153.655 146 153.655 146 153.654 146C153.653 146 153.652 146 153.651 146C153.65 146 153.649 146 153.648 146C153.648 146 153.647 146 153.646 146C153.645 146 153.644 146 153.643 146C153.642 146 153.641 146 153.641 146C153.64 146 153.639 146 153.638 146C153.637 146 153.636 146 153.635 146C153.634 146 153.633 146 153.633 146C153.632 146 153.631 146 153.63 146C153.629 146 153.628 146 153.627 146C153.626 146 153.626 146 153.625 146C153.624 146 153.623 146 153.622 146C153.621 146 153.62 146 153.619 146C153.619 146 153.618 146 153.617 146C153.616 146 153.615 146 153.614 146C153.613 146 153.612 146 153.612 146C153.611 146 153.61 146 153.609 146C153.608 146 153.607 146 153.606 146C153.605 146 153.604 146 153.604 146C153.603 146 153.602 146 153.601 146C153.6 146 153.599 146 153.598 146C153.597 146 153.597 146 153.596 146C153.595 146 153.594 146 153.593 146C153.592 146 153.591 146 153.59 146C153.589 146 153.589 146 153.588 146C153.587 146 153.586 146 153.585 146C153.584 146 153.583 146 153.582 146C153.582 146 153.581 146 153.58 146C153.579 146 153.578 146 153.577 146C153.576 146 153.575 146 153.574 146C153.574 146 153.573 146 153.572 146C153.571 146 153.57 146 153.569 146C153.568 146 153.567 146 153.566 146C153.566 146 153.565 146 153.564 146C153.563 146 153.562 146 153.561 146C153.56 146 153.559 146 153.558 146C153.558 146 153.557 146 153.556 146C153.555 146 153.554 146 153.553 146C153.552 146 153.551 146 153.551 146C153.55 146 153.549 146 153.548 146C153.547 146 153.546 146 153.545 146C153.544 146 153.543 146 153.543 146C153.542 146 153.541 146 153.54 146C153.539 146 153.538 146 153.537 146C153.536 146 153.535 146 153.535 146C153.534 146 153.533 146 153.532 146C153.531 146 153.53 146 153.529 146C153.528 146 153.527 146 153.526 146C153.526 146 153.525 146 153.524 146C153.523 146 153.522 146 153.521 146C153.52 146 153.519 146 153.518 146C153.518 146 153.517 146 153.516 146C153.515 146 153.514 146 153.513 146C153.512 146 153.511 146 153.51 146C153.51 146 153.509 146 153.508 146C153.507 146 153.506 146 153.505 146C153.504 146 153.503 146 153.502 146C153.502 146 153.501 146 153.5 146C153.499 146 153.498 146 153.497 146C153.496 146 153.495 146 153.494 146C153.493 146 153.493 146 153.492 146C153.491 146 153.49 146 153.489 146C153.488 146 153.487 146 153.486 146C153.485 146 153.485 146 153.484 146C153.483 146 153.482 146 153.481 146C153.48 146 153.479 146 153.478 146C153.477 146 153.476 146 153.476 146C153.475 146 153.474 146 153.473 146C153.472 146 153.471 146 153.47 146C153.469 146 153.468 146 153.468 146C153.467 146 153.466 146 153.465 146C153.464 146 153.463 146 153.462 146C153.461 146 153.46 146 153.459 146C153.459 146 153.458 146 153.457 146C153.456 146 153.455 146 153.454 146C153.453 146 153.452 146 153.451 146C153.45 146 153.45 146 153.449 146C153.448 146 153.447 146 153.446 146C153.445 146 153.444 146 153.443 146C153.442 146 153.441 146 153.441 146C153.44 146 153.439 146 153.438 146C153.437 146 153.436 146 153.435 146C153.434 146 153.433 146 153.432 146C153.432 146 153.431 146 153.43 146C153.429 146 153.428 146 153.427 146C153.426 146 153.425 146 153.424 146C153.423 146 153.423 146 153.422 146C153.421 146 153.42 146 153.419 146C153.418 146 153.417 146 153.416 146C153.415 146 153.414 146 153.414 146C153.413 146 153.412 146 153.411 146C153.41 146 153.409 146 153.408 146C153.407 146 153.406 146 153.405 146C153.404 146 153.404 146 153.403 146C153.402 146 153.401 146 153.4 146C153.399 146 153.398 146 153.397 146C153.396 146 153.395 146 153.395 146C153.394 146 153.393 146 153.392 146C153.391 146 153.39 146 153.389 146C153.388 146 153.387 146 153.386 146C153.385 146 153.385 146 153.384 146C153.383 146 153.382 146 153.381 146C153.38 146 153.379 146 153.378 146C153.377 146 153.376 146 153.375 146C153.375 146 153.374 146 153.373 146C153.372 146 153.371 146 153.37 146C153.369 146 153.368 146 153.367 146C153.366 146 153.365 146 153.365 146C153.364 146 153.363 146 153.362 146C153.361 146 153.36 146 153.359 146C153.358 146 153.357 146 153.356 146C153.355 146 153.355 146 153.354 146C153.353 146 153.352 146 153.351 146C153.35 146 153.349 146 153.348 146C153.347 146 153.346 146 153.345 146C153.345 146 153.344 146 153.343 146C153.342 146 153.341 146 153.34 146V148ZM154.653 147.999C155.055 147.986 155.364 147.972 155.571 147.957L155.429 145.963C155.262 145.974 154.985 145.987 154.587 146.001L154.653 147.999ZM155.5 147.96C155.386 147.96 155.117 147.931 154.883 147.697C154.649 147.463 154.62 147.194 154.62 147.08H156.62C156.62 146.886 156.571 146.557 156.297 146.283C156.023 146.009 155.694 145.96 155.5 145.96V147.96ZM154.62 147.08C154.62 146.976 154.639 146.893 154.657 146.839C154.674 146.785 154.693 146.748 154.703 146.73C154.722 146.697 154.728 146.696 154.697 146.731L156.183 148.069C156.272 147.97 156.368 147.85 156.447 147.71C156.52 147.58 156.62 147.359 156.62 147.08H154.62ZM154.733 146.693C154.785 146.641 154.825 146.625 154.823 146.626C154.822 146.626 154.813 146.63 154.794 146.635C154.775 146.64 154.748 146.646 154.712 146.651L155.008 148.629C155.371 148.575 155.81 148.444 156.147 148.107L154.733 146.693ZM154.86 146.64H153.08V148.64H154.86V146.64ZM152.115 147.377L152.055 147.597L153.985 148.123L154.045 147.903L152.115 147.377ZM152.048 147.625C151.95 148.032 151.807 148.701 151.62 149.621L153.58 150.019C153.767 149.099 153.903 148.462 153.992 148.095L152.048 147.625ZM151.618 149.632C151.438 150.574 151.281 151.69 151.146 152.975L153.135 153.185C153.266 151.936 153.416 150.879 153.582 150.008L151.618 149.632ZM151.145 152.98C151.078 153.649 151.011 154.338 150.944 155.046L152.936 155.234C153.002 154.529 153.069 153.844 153.135 153.18L151.145 152.98ZM150.944 155.046C150.88 155.732 150.796 156.389 150.693 157.019L152.667 157.341C152.777 156.664 152.867 155.961 152.936 155.234L150.944 155.046ZM150.693 157.019C150.593 157.631 150.464 158.174 150.309 158.651L152.211 159.269C152.403 158.68 152.554 158.036 152.667 157.341L150.693 157.019ZM150.304 158.666C150.172 159.095 150.015 159.372 149.865 159.544L151.375 160.856C151.758 160.415 152.028 159.865 152.216 159.254L150.304 158.666ZM149.849 159.563C149.787 159.638 149.744 159.66 149.64 159.66V161.66C150.336 161.66 150.946 161.375 151.391 160.837L149.849 159.563Z" fill="black"/>
</svg>
